<svg xmlns="http://www.w3.org/2000/svg" viewBox="685 609 85 35"><defs><style>.a{fill:#fff;}.b,.c,.e{fill:#2699fb;}.b{font-size:14px;font-family:Roboto-Medium, Roboto;font-weight:500;}.c{stroke:#2699fb;}.d,.e{stroke:none;}.f{fill:none;}</style></defs><g transform="translate(445)"><g class="a" transform="translate(240 609)"><path class="d" d="M 67.5 34.5 L 17.5 34.5 C 12.95913314819336 34.5 8.690066337585449 32.731689453125 5.479188919067383 29.52081108093262 C 2.268311023712158 26.30993270874023 0.5 22.04086685180664 0.5 17.5 C 0.5 12.95913314819336 2.268311023712158 8.690066337585449 5.479188919067383 5.479188919067383 C 8.690066337585449 2.268311023712158 12.95913314819336 0.5 17.5 0.5 L 67.5 0.5 C 72.04086303710938 0.5 76.30994415283203 2.268311023712158 79.52082061767578 5.479188919067383 C 82.731689453125 8.690066337585449 84.5 12.95913314819336 84.5 17.5 C 84.5 22.04086685180664 82.731689453125 26.30993270874023 79.52082061767578 29.52081108093262 C 76.30994415283203 32.731689453125 72.04086303710938 34.5 67.5 34.5 Z"/><path class="e" d="M 67.5 34 C 71.90730285644531 34 76.05082702636719 32.28369522094727 79.16725921630859 29.16725921630859 C 82.28370666503906 26.05082321166992 84 21.90730667114258 84 17.5 C 84 13.09268188476562 82.28370666503906 8.949176788330078 79.16725921630859 5.832741260528564 C 76.05082702636719 2.716294050216675 71.90731811523438 1 67.5 1 L 17.5 1 C 13.09269428253174 1 8.949176788330078 2.716294050216675 5.832741260528564 5.832741260528564 C 2.71630597114563 8.949176788330078 1 13.09269428253174 1 17.5 C 1 21.90730667114258 2.71630597114563 26.05082321166992 5.832741260528564 29.16725921630859 C 8.949176788330078 32.28369522094727 13.09269428253174 34 17.5 34 L 67.5 34 M 67.5 35 L 17.5 35 C 7.835023403167725 35 0 27.16497611999512 0 17.5 C 0 7.835011959075928 7.835023403167725 0 17.5 0 L 67.5 0 C 77.16498565673828 0 85 7.835011959075928 85 17.5 C 85 27.16497611999512 77.16498565673828 35 67.5 35 Z"/></g><text class="b" transform="translate(256 632)"><tspan x="0" y="0">ON</tspan></text><g class="c" transform="translate(293.607 615.607)"><circle class="d" cx="11.196" cy="11.196" r="11.196"/><circle class="f" cx="11.196" cy="11.196" r="10.696"/></g></g></svg>